<svg width="14" height="16" viewBox="0 0 14 16" fill="none" xmlns="http://www.w3.org/2000/svg">
<path d="M2.00037 3.10656L2 11.125C2 12.7819 3.28942 14.1375 4.91953 14.2434L5.125 14.25L10.643 14.2509C10.3854 14.9787 9.69106 15.5 8.875 15.5H4.5C2.42893 15.5 0.75 13.8211 0.75 11.75V4.875C0.75 4.05848 1.27193 3.36386 2.00037 3.10656ZM11.375 0.5C12.4105 0.5 13.25 1.33947 13.25 2.375V11.125C13.25 12.1605 12.4105 13 11.375 13H5.125C4.08947 13 3.25 12.1605 3.25 11.125V2.375C3.25 1.33947 4.08947 0.5 5.125 0.5H11.375Z" fill="#212121"/>
</svg>
