<svg width="22" height="22" viewBox="0 0 22 22" fill="none" xmlns="http://www.w3.org/2000/svg">
<path d="M5.27546 18.5927L3.66671 7.33333H18.3334L16.7246 18.5927C16.6622 19.0296 16.4442 19.4293 16.1108 19.7184C15.7774 20.0075 15.3509 20.1667 14.9096 20.1667H7.09046C6.64915 20.1667 6.22264 20.0075 5.88924 19.7184C5.55583 19.4293 5.3379 19.0296 5.27546 18.5927ZM19.25 3.66667H14.6667V2.75C14.6667 2.50688 14.5701 2.27373 14.3982 2.10182C14.2263 1.92991 13.9932 1.83333 13.75 1.83333H8.25004C8.00693 1.83333 7.77377 1.92991 7.60186 2.10182C7.42995 2.27373 7.33337 2.50688 7.33337 2.75V3.66667H2.75004C2.50693 3.66667 2.27377 3.76324 2.10186 3.93515C1.92995 4.10706 1.83337 4.34022 1.83337 4.58333C1.83337 4.82645 1.92995 5.0596 2.10186 5.23151C2.27377 5.40342 2.50693 5.5 2.75004 5.5H19.25C19.4932 5.5 19.7263 5.40342 19.8982 5.23151C20.0701 5.0596 20.1667 4.82645 20.1667 4.58333C20.1667 4.34022 20.0701 4.10706 19.8982 3.93515C19.7263 3.76324 19.4932 3.66667 19.25 3.66667Z" fill="#F6F4F4"/>
</svg>
