<svg width="24" height="24" viewBox="0 0 24 24" fill="none" xmlns="http://www.w3.org/2000/svg">
<path fill-rule="evenodd" clip-rule="evenodd" d="M11.6484 17.6484C11.4233 17.8734 11.1182 17.9997 10.8 17.9997C10.4818 17.9997 10.1766 17.8734 9.95158 17.6484L5.15158 12.8484C4.92661 12.6234 4.80023 12.3182 4.80023 12C4.80023 11.6818 4.92661 11.3766 5.15158 11.1516L9.95158 6.35159C10.1779 6.13301 10.481 6.01205 10.7957 6.01479C11.1103 6.01752 11.4113 6.14372 11.6338 6.36621C11.8562 6.5887 11.9825 6.88968 11.9852 7.20431C11.9879 7.51895 11.867 7.82207 11.6484 8.04839L8.89678 10.8H18C18.3182 10.8 18.6235 10.9264 18.8485 11.1515C19.0735 11.3765 19.2 11.6817 19.2 12C19.2 12.3183 19.0735 12.6235 18.8485 12.8485C18.6235 13.0736 18.3182 13.2 18 13.2H8.89678L11.6484 15.9516C11.8733 16.1766 11.9997 16.4818 11.9997 16.8C11.9997 17.1182 11.8733 17.4234 11.6484 17.6484Z" fill="black"/>
</svg>
