<svg width="32" height="32" viewBox="0 0 32 32" fill="none" xmlns="http://www.w3.org/2000/svg">
<path fill-rule="evenodd" clip-rule="evenodd" d="M15.5312 23.5312C15.2311 23.8311 14.8243 23.9997 14.4 23.9997C13.9757 23.9997 13.5688 23.8311 13.2688 23.5312L6.86879 17.1312C6.56883 16.8311 6.40033 16.4243 6.40033 16C6.40033 15.5757 6.56883 15.1688 6.86879 14.8688L13.2688 8.46879C13.5706 8.17734 13.9747 8.01607 14.3942 8.01971C14.8137 8.02336 15.215 8.19163 15.5117 8.48828C15.8084 8.78494 15.9766 9.18624 15.9803 9.60575C15.9839 10.0253 15.8226 10.4294 15.5312 10.7312L11.8624 14.4H24C24.4243 14.4 24.8313 14.5686 25.1314 14.8686C25.4314 15.1687 25.6 15.5756 25.6 16C25.6 16.4243 25.4314 16.8313 25.1314 17.1314C24.8313 17.4314 24.4243 17.6 24 17.6H11.8624L15.5312 21.2688C15.8311 21.5688 15.9996 21.9757 15.9996 22.4C15.9996 22.8243 15.8311 23.2311 15.5312 23.5312Z" fill="white"/>
</svg>
