<svg width="16" height="16" viewBox="0 0 16 16" fill="none" xmlns="http://www.w3.org/2000/svg">
<path fill-rule="evenodd" clip-rule="evenodd" d="M2.53762 4.1376C3.13771 3.53769 3.9515 3.20068 4.80002 3.20068C5.64855 3.20068 6.46234 3.53769 7.06242 4.1376L8.00002 5.0744L8.93762 4.1376C9.23281 3.83196 9.58592 3.58818 9.97633 3.42047C10.3667 3.25276 10.7866 3.16449 11.2115 3.1608C11.6364 3.1571 12.0578 3.23807 12.4511 3.39897C12.8443 3.55987 13.2016 3.79748 13.5021 4.09793C13.8025 4.39839 14.0402 4.75568 14.2011 5.14894C14.362 5.54221 14.4429 5.96359 14.4392 6.38848C14.4355 6.81337 14.3473 7.23328 14.1795 7.62369C14.0118 8.0141 13.7681 8.36721 13.4624 8.6624L8.00002 14.1256L2.53762 8.6624C1.93772 8.06231 1.60071 7.24852 1.60071 6.4C1.60071 5.55147 1.93772 4.73769 2.53762 4.1376Z" fill="white"/>
</svg>
