<svg width="13" height="13" viewBox="0 0 13 13" fill="none" xmlns="http://www.w3.org/2000/svg">
<g opacity="0.6">
<path d="M8.8309 2.3309C8.95082 2.20673 9.09427 2.1077 9.25287 2.03956C9.41148 1.97143 9.58206 1.93557 9.75468 1.93407C9.92729 1.93257 10.0985 1.96546 10.2582 2.03083C10.418 2.09619 10.5632 2.19272 10.6852 2.31478C10.8073 2.43684 10.9038 2.58199 10.9692 2.74176C11.0345 2.90152 11.0674 3.0727 11.0659 3.24532C11.0644 3.41793 11.0286 3.58852 10.9604 3.74712C10.8923 3.90573 10.7933 4.04918 10.6691 4.1691L10.1536 4.68455L8.31545 2.84635L8.8309 2.3309ZM7.39635 3.76545L1.95 9.2118V11.05H3.7882L9.2352 5.60365L7.39635 3.76545Z" fill="black"/>
</g>
</svg>
