<svg width="19" height="19" viewBox="0 0 19 19" fill="none" xmlns="http://www.w3.org/2000/svg">
<path d="M14.655 7.97739C14.655 8.56211 14.1605 9.03624 13.5504 9.03624C12.9404 9.03624 12.4457 8.56211 12.4457 7.97739C12.4457 7.39259 12.9404 6.91853 13.5504 6.91853C14.1605 6.91853 14.655 7.39259 14.655 7.97739Z" fill="#56B617"/>
<path fill-rule="evenodd" clip-rule="evenodd" d="M14.2787 4.37954C13.4398 4.27142 12.3678 4.27143 11.0144 4.27145H7.9856C6.63217 4.27143 5.56019 4.27142 4.72124 4.37954C3.85783 4.49081 3.15899 4.72525 2.60787 5.25351C2.05675 5.78177 1.81217 6.45163 1.69609 7.27923C1.58329 8.08339 1.58331 9.1109 1.58331 10.4082V10.4878C1.58331 11.7851 1.58329 12.8126 1.69609 13.6167C1.81217 14.4444 2.05675 15.1142 2.60787 15.6425C3.15899 16.1707 3.85783 16.4052 4.72124 16.5165C5.5602 16.6245 6.63217 16.6245 7.9856 16.6245H11.0144C12.3678 16.6245 13.4398 16.6245 14.2787 16.5165C15.1421 16.4052 15.841 16.1707 16.3921 15.6425C16.9432 15.1142 17.1878 14.4444 17.3038 13.6167C17.4166 12.8126 17.4166 11.7851 17.4166 10.4878V10.4082C17.4166 9.1109 17.4166 8.08339 17.3038 7.27923C17.1878 6.45163 16.9432 5.78177 16.3921 5.25351C15.841 4.72525 15.1421 4.49081 14.2787 4.37954ZM4.86844 5.42893C4.12752 5.52442 3.70064 5.70348 3.38898 6.00222C3.07731 6.30096 2.89051 6.71013 2.79089 7.42032C2.71099 7.98998 2.6931 8.70192 2.68911 9.63316L3.06186 9.32053C3.95178 8.57415 5.29303 8.61698 6.12918 9.41846L9.28829 12.4465C9.60456 12.7497 10.1025 12.791 10.4685 12.5445L10.6881 12.3966C11.7414 11.6871 13.1665 11.7692 14.1235 12.5948L16.0296 14.2391C16.1075 14.0301 16.1663 13.7806 16.209 13.4757C16.3108 12.7503 16.312 11.794 16.312 10.448C16.312 9.10195 16.3108 8.1457 16.209 7.42032C16.1094 6.71013 15.9226 6.30096 15.611 6.00222C15.2993 5.70348 14.8725 5.52442 14.1315 5.42893C13.3747 5.33141 12.3771 5.33028 10.9729 5.33028H8.02708C6.62286 5.33028 5.62524 5.33141 4.86844 5.42893Z" fill="#56B617"/>
<g opacity="0.5">
<path d="M13.5269 2.06656C12.8462 1.97914 11.9796 1.97915 10.8993 1.97916H8.45327C7.37292 1.97915 6.50628 1.97914 5.8256 2.06656C5.12072 2.15708 4.53303 2.34994 4.0669 2.79518C3.79808 3.05195 3.61703 3.34743 3.49371 3.68068C3.89287 3.49859 4.34416 3.39129 4.85084 3.32566C5.7093 3.21446 6.80621 3.21447 8.19107 3.21447H11.2904C12.6752 3.21447 13.7721 3.21446 14.6306 3.32566C15.0731 3.38299 15.4734 3.4721 15.8336 3.61505C15.7112 3.30851 15.5367 3.03497 15.2856 2.79518C14.8195 2.34994 14.2318 2.15708 13.5269 2.06656Z" fill="#56B617"/>
</g>
</svg>
