<svg width="17" height="17" viewBox="0 0 17 17" fill="none" xmlns="http://www.w3.org/2000/svg">
<path fill-rule="evenodd" clip-rule="evenodd" d="M10.8571 5.34224H6.14296C3.75247 5.34224 2.55722 5.34224 1.88583 6.04125C1.21444 6.74025 1.3724 7.82021 1.68834 9.98006L1.98794 12.0283C2.2357 13.722 2.35959 14.5689 2.99509 15.0761C3.6306 15.5833 4.56792 15.5833 6.44255 15.5833H10.5574C12.4321 15.5833 13.3695 15.5833 14.005 15.0761C14.6405 14.5689 14.7643 13.722 15.0121 12.0283L15.3117 9.98006C15.6276 7.82021 15.7856 6.74025 15.1142 6.04125C14.4428 5.34224 13.2476 5.34224 10.8571 5.34224ZM10.3284 11.1876C10.7239 10.9423 10.7239 10.3076 10.3284 10.0624L7.94015 8.58188C7.55574 8.3436 7.08335 8.65378 7.08335 9.14444V12.1055C7.08335 12.5961 7.55574 12.9063 7.94015 12.668L10.3284 11.1876Z" fill="#EC3F42"/>
<path opacity="0.4" d="M6.02758 1.41667H10.9718C11.1365 1.41663 11.2628 1.4166 11.3731 1.4274C12.1578 1.50416 12.8001 1.97595 13.0725 2.61147H3.92694C4.1993 1.97595 4.84158 1.50416 5.62629 1.4274C5.73665 1.4166 5.86291 1.41663 6.02758 1.41667Z" fill="#1C274C"/>
<path opacity="0.7" d="M4.4697 3.34522C3.48468 3.34522 2.67699 3.94004 2.40745 4.72915C2.40183 4.7456 2.39645 4.76214 2.3913 4.77875C2.67332 4.69335 2.96682 4.63755 3.26395 4.59946C4.02921 4.50135 4.99633 4.5014 6.11976 4.50147H11.0017C12.1251 4.5014 13.0922 4.50135 13.8575 4.59946C14.1546 4.63755 14.4481 4.69335 14.7301 4.77875C14.725 4.76214 14.7196 4.7456 14.714 4.72915C14.4445 3.94004 13.6367 3.34522 12.6517 3.34522H4.4697Z" fill="#1C274C"/>
</svg>
