<svg width="24" height="24" viewBox="0 0 24 24" fill="none" xmlns="http://www.w3.org/2000/svg">
<g clip-path="url(#clip0_1_161)">
<path fill-rule="evenodd" clip-rule="evenodd" d="M11.9965 0C5.38151 0 1.3647e-05 5.3825 1.3647e-05 12C-0.00381117 14.5275 0.796434 16.9908 2.28501 19.0335L0.790014 23.492L5.40201 22.018C7.35894 23.3152 9.65572 24.0047 12.0035 24C18.6185 24 24 18.617 24 12C24 5.383 18.619 0 12.0035 0H11.9965ZM8.64651 6.095C8.41351 5.538 8.23751 5.517 7.88501 5.5025C7.75118 5.49402 7.61712 5.48952 7.48301 5.489C7.02401 5.489 6.54451 5.623 6.25551 5.919C5.90301 6.279 5.02851 7.118 5.02851 8.8395C5.02851 10.561 6.28351 12.226 6.45301 12.459C6.62951 12.6915 8.90051 16.275 12.4265 17.7355C15.184 18.8785 16.0025 18.7725 16.63 18.6385C17.547 18.441 18.6965 17.7635 18.9855 16.9455C19.275 16.127 19.275 15.4285 19.1905 15.2805C19.1055 15.1325 18.8725 15.048 18.5205 14.8715C18.1675 14.695 16.4535 13.8485 16.129 13.7355C15.812 13.6155 15.509 13.658 15.269 13.9965C14.9305 14.4695 14.599 14.949 14.331 15.238C14.1195 15.464 13.7735 15.4925 13.4845 15.372C13.0965 15.21 12.0105 14.829 10.6705 13.637C9.63351 12.7125 8.92851 11.563 8.72401 11.217C8.51901 10.8645 8.70301 10.66 8.86501 10.4695C9.04151 10.2505 9.21051 10.0955 9.38701 9.891C9.56301 9.686 9.66201 9.5805 9.77501 9.341C9.89501 9.108 9.81001 8.868 9.72501 8.691C9.64101 8.515 8.93551 6.7935 8.64651 6.0955V6.095Z" fill="#67C15E"/>
</g>
<defs>
<clipPath id="clip0_1_161">
<rect width="24" height="24" fill="white"/>
</clipPath>
</defs>
</svg>
